<svg width="178" height="29" viewBox="0 0 178 29" fill="none" xmlns="http://www.w3.org/2000/svg">
    <g id="Isolation_Mode" clip-path="url(#clip0_165_221)">
        <path id="Vector"
            d="M28.7338 4.0899e-05L26.9338 2.60316C25.2013 5.09573 22.6251 6.55307 18.7888 6.55307H18.0688L21.4101 1.75891L22.5688 -0.0100098H28.7338V4.0899e-05Z"
            fill="#991E20" />
        <path id="Vector_2"
            d="M23.3677 28.6846H17.3715L10.2727 18.2822L7.31396 14.0207L10.3065 9.71899L13.299 14.0207L18.7327 22.021L23.3677 28.6846Z"
            fill="#E32228" />
        <path id="Vector_3"
            d="M20.341 12.272L17.3485 16.5736L14.356 12.272L11.3073 7.88987L10.0585 6.0908L6.71729 1.29663H12.7135L16.0435 6.0908L17.3035 7.88987L17.3485 7.96022L20.341 12.272Z"
            fill="#E32228" />
        <path id="Vector_4"
            d="M0.125 28.6846L1.925 26.0815C3.6575 23.5889 6.23375 22.1316 10.07 22.1316H10.79L7.44875 26.9258L6.29 28.6947H0.125V28.6846Z"
            fill="#991E20" />
        <path id="Vector_5" d="M59.7275 22.001V18.2722H71.855V22.001H59.7275Z" fill="#E32228" />
        <path id="Vector_6"
            d="M173.521 8.54306V12.7241C173.521 13.9403 172.396 14.9453 171.035 14.9453C169.674 14.9453 168.549 13.9403 168.549 12.7241V5.93994H157.749V24.594H161.832V10.1512H164.454V12.7241C164.454 13.6287 164.679 14.483 165.095 15.2469C166.152 17.2268 168.414 18.5937 171.024 18.5937C174.635 18.5937 177.594 15.9504 177.594 12.7241V8.54306H173.51H173.521Z"
            fill="#991E20" />
        <path id="Vector_7" d="M151.595 5.98022H147.511V24.5941H151.595V5.98022Z" fill="#991E20" />
        <path id="Vector_8" d="M92.7912 20.9457H96.8749L96.7961 6.03052H92.7124L92.7912 20.9457Z" fill="#E32228" />
        <path id="Vector_9" d="M174.095 21.0059H170V24.6543H174.095V21.0059Z" fill="#991E20" />
        <path id="Vector_10" d="M137.735 20.9456H133.64V24.5939H137.735V20.9456Z" fill="#991E20" />
        <path id="Vector_11" d="M131.952 20.9456H127.857V24.5939H131.952V20.9456Z" fill="#991E20" />
        <path id="Vector_12" d="M92.7124 24.6644H96.8074V24.0211H94.1411V22.8351H96.8074V22.1919H92.7124V24.6644Z"
            fill="#E32228" />
        <path id="Vector_13"
            d="M138.759 14.9453H124.539V10.1109H120.455V16.3323C120.455 17.5484 119.33 18.5535 117.969 18.5535C116.607 18.5535 115.482 17.5484 115.482 16.3323V10.1109H108.102H104.019V24.6743H108.102V13.7694H111.399V16.3423C111.399 17.2469 111.624 18.0912 112.04 18.855C113.097 20.835 115.359 22.2019 117.969 22.2019C120.77 22.2019 123.166 20.6239 124.111 18.4128H138.759H142.842V10.0908H138.759V14.9453Z"
            fill="#991E20" />
        <path id="Vector_14"
            d="M86.0636 18.3022L80.6186 12.9854L82.4524 11.1964L79.6399 8.53296L75.0724 12.9854L80.5286 18.3022L68.0299 18.3625V12.1411H63.9461V18.3826H60.7961L60.7061 8.54301H56.6224L56.7124 12.5733H50.0299V18.7947C50.0299 20.0108 48.9049 21.0159 47.5436 21.0159C46.1824 21.0159 45.0574 20.0108 45.0574 18.7947V12.5733H40.9736V18.7947C40.9736 22.021 43.9324 24.6643 47.5436 24.6643C50.1536 24.6643 52.4149 23.2873 53.4724 21.3174C53.8886 20.5536 54.1136 19.6992 54.1136 18.8047V16.3725H56.6899V22.222L90.0461 22.2019L86.0636 18.3123V18.3022Z"
            fill="#E32228" />
        <path id="Vector_15" d="M82.1265 6.1108L84.8265 8.63352L89.8102 4.02026H84.264L82.1265 6.1108Z"
            fill="#E32228" />
    </g>
    <defs>
        <clipPath id="clip0_165_221">
            <rect width="177.48" height="28.6846" fill="white" transform="translate(0.125)" />
        </clipPath>
    </defs>
</svg>