<svg width="382" height="69" viewBox="0 0 382 69" fill="none" xmlns="http://www.w3.org/2000/svg">
<g clip-path="url(#clip0_81_653)">
<path d="M61.576 6.67013e-06L57.7017 6.26174C53.9728 12.2575 48.4278 15.7631 40.1708 15.7631H38.6211L45.8127 4.23091L48.3067 -0.0241699H61.576V6.67013e-06Z" fill="white"/>
<path d="M50.026 69H37.12L21.8409 43.9772L15.4727 33.7264L21.9136 23.3788L28.3545 33.7264L40.0499 52.9709L50.026 69Z" fill="#E32228"/>
<path d="M43.5126 29.5196L37.0717 39.8672L30.6308 29.5196L24.0688 18.9786L21.381 14.651L14.1895 3.11877H27.0955L34.2629 14.651L36.9748 18.9786L37.0717 19.1479L43.5126 29.5196Z" fill="#E32228"/>
<path d="M0 69L3.87424 62.7382C7.6032 56.7424 13.1482 53.2368 21.4052 53.2368H22.9549L15.7633 64.7691L13.2693 69.0241H0V69Z" fill="white"/>
<path d="M128.286 52.9225V43.953H154.388V52.9225H128.286Z" fill="#E32228"/>
<path d="M373.21 20.5501V30.6075C373.21 33.5329 370.789 35.9506 367.859 35.9506C364.929 35.9506 362.508 33.5329 362.508 30.6075V14.2883H339.262V59.1601H348.052V24.4183H353.694V30.6075C353.694 32.7834 354.178 34.8384 355.074 36.6759C357.35 41.4386 362.217 44.7267 367.835 44.7267C375.607 44.7267 381.976 38.3682 381.976 30.6075V20.5501H373.186H373.21Z" fill="white"/>
<path d="M326.017 14.3851H317.228V59.1602H326.017V14.3851Z" fill="white"/>
<path d="M199.451 50.384H208.24L208.071 14.506H199.281L199.451 50.384Z" fill="#E32228"/>
<path d="M372.814 50H364V58.7761H372.814V50Z" fill="white"/>
<path d="M296.185 50.384H287.372V59.1601H296.185V50.384Z" fill="white"/>
<path d="M283.74 50.384H274.926V59.1601H283.74V50.384Z" fill="white"/>
<path d="M199.281 59.3294H208.095V57.7821H202.356V54.9293H208.095V53.382H199.281V59.3294Z" fill="#E32228"/>
<path d="M298.389 35.9506H267.783V24.3217H258.993V39.287C258.993 42.2123 256.571 44.63 253.642 44.63C250.712 44.63 248.29 42.2123 248.29 39.287V24.3217H232.406H223.616V59.3535H232.406V33.1219H239.501V39.3112C239.501 41.4871 239.985 43.5179 240.881 45.3553C243.157 50.1181 248.024 53.4061 253.642 53.4061C259.671 53.4061 264.828 49.6104 266.862 44.2915H298.389H307.179V24.2733H298.389V35.9506Z" fill="white"/>
<path d="M184.971 44.0255L173.251 31.2361L177.198 26.9327L171.144 20.5259L161.314 31.2361L173.057 44.0255L146.156 44.1706V29.2053H137.366V44.2189H130.586L130.392 20.5501H121.603L121.796 30.2449H107.413V45.2102C107.413 48.1356 104.992 50.5532 102.062 50.5532C99.132 50.5532 96.7106 48.1356 96.7106 45.2102V30.2449H87.9209V45.2102C87.9209 52.9709 94.2892 59.3293 102.062 59.3293C107.68 59.3293 112.547 56.0171 114.823 51.2785C115.719 49.4411 116.203 47.3861 116.203 45.2344V39.3836H121.748V53.4544L193.542 53.406L184.971 44.0497V44.0255Z" fill="#E32228"/>
<path d="M176.496 14.6994L182.307 20.7677L193.034 9.67065H181.096L176.496 14.6994Z" fill="#E32228"/>
</g>
<defs>
<clipPath id="clip0_81_653">
<rect width="382" height="69" fill="white"/>
</clipPath>
</defs>
</svg>
