<svg width="19" height="37" viewBox="0 0 19 37" fill="none" xmlns="http://www.w3.org/2000/svg">
<g clip-path="url(#clip0_23_1027)">
<path d="M10.4851 19.8323C10.8311 18.2517 11.1722 16.7665 11.4654 15.2718C11.5134 15.0378 11.4125 14.6653 11.2251 14.5221C10.0911 13.6625 8.86092 13.672 7.73649 14.5221C7.58272 14.6367 7.46258 14.9137 7.50103 15.0904C7.82298 16.6758 8.18337 18.2517 8.52935 19.8323H10.4899H10.4851ZM16.4628 6.67605C15.2423 6.50413 13.9593 6.27491 12.6619 6.1603C11.9315 6.09822 11.5711 5.77349 11.2876 5.21955C10.7494 4.1594 10.1631 3.12313 9.50482 1.9054C8.79845 3.19954 8.26987 4.29311 7.60674 5.31505C7.37128 5.67799 6.85232 6.00749 6.40062 6.103C5.10801 6.36565 3.78176 6.49936 2.50356 6.67605C3.42136 7.57861 4.24787 8.45728 5.16087 9.25478C5.69905 9.72277 5.87204 10.1812 5.71828 10.8402C5.45879 11.9624 5.2858 13.1038 5.03593 14.4409C6.04984 13.9681 6.90517 13.6673 7.64038 13.2088C8.88975 12.4257 10.0382 12.3349 11.3164 13.1754C12.0564 13.6625 12.9454 13.9538 13.9737 14.4313C13.7142 13.0703 13.5268 11.929 13.2769 10.7972C13.1424 10.186 13.2914 9.74187 13.7959 9.29298C14.7041 8.48594 15.5306 7.59771 16.458 6.67605M17.6353 35.7441C17.1019 31.7757 16.5782 27.9076 16.0496 23.9965C15.1894 23.9965 14.459 23.9679 13.7383 24.0013C12.8637 24.0443 12.4408 23.7577 12.5129 22.9125C12.5658 22.3299 12.5225 21.7377 12.5225 21.1313H6.4727C6.4727 21.69 6.4727 22.1819 6.4727 22.6737C6.4679 23.9583 6.42945 23.9917 4.97346 23.9965C4.32475 23.9965 3.67604 23.9965 2.94083 23.9965C2.40745 27.9506 1.88368 31.8139 1.35029 35.7441H17.6305H17.6353ZM12.8253 15.3052C12.4889 16.8334 12.1669 18.2851 11.821 19.8562C14.9252 19.4121 13.4451 21.604 13.9833 22.7979C14.6897 22.7979 15.4489 22.8218 16.1985 22.7931C16.9097 22.7597 17.2653 23.0032 17.3518 23.6766C17.8756 27.7643 18.4042 31.8473 18.9712 35.9303C19.0817 36.7374 18.7742 37.0048 17.914 37C12.3063 36.9857 6.69374 36.9857 1.086 37C0.240278 37 -0.100895 36.7565 0.0144312 35.9351C0.581452 31.8521 1.11964 27.7691 1.64341 23.6813C1.72991 23.0128 2.06628 22.7597 2.78707 22.7931C3.54149 22.8265 4.29592 22.7979 5.16567 22.7979C5.16567 22.158 5.20892 21.6327 5.15606 21.1122C5.05995 20.1571 5.48282 19.7368 6.53997 19.8562C6.70816 19.8753 6.89076 19.8276 7.18388 19.7989C6.85712 18.2947 6.53998 16.8429 6.20361 15.2957C5.77113 15.4915 5.44438 15.6921 5.07918 15.7971C4.65631 15.9165 4.20462 15.9499 3.76253 16.0168C3.71448 15.6109 3.57993 15.1906 3.6376 14.799C3.83942 13.5192 4.15176 12.2537 4.33917 10.9739C4.38722 10.6444 4.24306 10.1908 3.99799 9.95199C2.95045 8.9396 1.8116 8.00362 0.749636 7.00078C0.504568 6.77156 0.297942 6.37997 0.336384 6.08867C0.355605 5.91676 0.879378 5.72574 1.20133 5.67321C2.56122 5.45354 3.93072 5.25297 5.30022 5.10971C6.05464 5.02853 6.54478 4.78498 6.86673 4.11165C7.42895 2.92734 8.08246 1.77646 8.74078 0.630361C8.89455 0.362938 9.25495 -0.0334227 9.44716 -0.00477017C9.7595 0.0429841 10.1103 0.353387 10.2737 0.635137C10.9416 1.77646 11.5903 2.92734 12.1525 4.11642C12.4745 4.79453 12.9742 5.02853 13.719 5.10493C15.127 5.25775 16.5301 5.45832 17.9284 5.68754C18.236 5.74007 18.6252 5.94541 18.7501 6.17941C18.8366 6.33699 18.582 6.7238 18.3753 6.91482C17.2749 7.93199 16.1217 8.9014 15.0453 9.93289C14.8002 10.1669 14.6561 10.6253 14.7041 10.9501C14.9107 12.3636 15.2231 13.7628 15.4585 15.1715C15.5018 15.4342 15.4489 15.8878 15.2807 15.9643C15.0165 16.0836 14.5936 16.0263 14.2812 15.926C13.8055 15.778 13.3682 15.5345 12.8397 15.3005" fill="#761116"/>
<path d="M9.48551 32.8072C8.21692 32.8072 6.94353 32.8502 5.67975 32.7785C5.33377 32.7594 5.01662 32.3822 4.68506 32.1673C5.01182 31.981 5.32896 31.642 5.66053 31.6372C8.23615 31.5942 10.8118 31.5942 13.3874 31.6372C13.7045 31.642 14.0121 32.0049 14.3292 32.2007C14.0217 32.4013 13.7238 32.7642 13.4066 32.7785C12.1044 32.8454 10.7973 32.8072 9.49032 32.8072" fill="#761116"/>
<path d="M9.52876 30.6391C8.21692 30.6391 6.90509 30.6773 5.59325 30.6105C5.28091 30.5962 4.98779 30.2284 4.68506 30.0279C4.97337 29.8321 5.25208 29.4787 5.5452 29.4739C8.16887 29.4309 10.7925 29.4262 13.4114 29.4739C13.7189 29.4787 14.0217 29.8703 14.3244 30.0804C14.0025 30.2666 13.6853 30.5962 13.3537 30.6105C12.0804 30.6726 10.807 30.6344 9.52876 30.6344" fill="#761116"/>
<path d="M9.43746 28.4806C8.16407 28.4806 6.88587 28.5188 5.61728 28.452C5.29533 28.4377 4.9974 28.0795 4.68506 27.8837C5.00221 27.6831 5.31935 27.3202 5.64131 27.3154C8.22654 27.2677 10.8118 27.2677 13.3922 27.3154C13.7093 27.3202 14.0121 27.7022 14.3244 27.9076C14.0073 28.0986 13.6949 28.4377 13.3634 28.4568C12.0563 28.5188 10.7445 28.4806 9.43266 28.4806" fill="#761116"/>
</g>
<defs>
<clipPath id="clip0_23_1027">
<rect width="19" height="37" fill="white"/>
</clipPath>
</defs>
</svg>
