<svg width="37" height="30" viewBox="0 0 37 30" fill="none" xmlns="http://www.w3.org/2000/svg">
<rect width="37" height="30" fill="#F5F5F5"/>
<g id="Home" clip-path="url(#clip0_0_1)">
<rect width="1440" height="4284" transform="translate(-392 -2422)" fill="white"/>
<g id="Group 29">
<rect id="Rectangle 153" x="-88" y="-36" width="832" height="140" rx="62" fill="#E8E8E8" fill-opacity="0.25"/>
<g id="Rafahya Icon">
<rect id="Rectangle 7" x="-12" y="-18" width="61" height="65" rx="9" stroke="#761116" stroke-width="2"/>
<g id="Layer_1" clip-path="url(#clip1_0_1)">
<path id="Vector" d="M35.0156 11.7614C28.5416 11.3636 23.375 8.26447 19.4687 2.22625C18.5 4.19939 17.6146 5.99174 16.7291 7.7841C16.8073 7.84608 16.8854 7.90806 16.9635 7.97005C17.4687 7.57232 17.9791 7.18492 18.4687 6.7717C19.9323 5.54236 20.1979 5.63534 20.7396 7.60848C20.75 7.63947 20.7552 7.67046 20.7604 7.70662C20.8437 8.4091 21.1875 8.72934 21.8385 8.67253C23.7604 8.50207 24.1041 10.7696 23.6614 12.1488C23.5729 12.4329 23.0156 12.6808 22.6875 12.6601C22.5052 12.6498 22.3125 12.0558 22.2135 11.6994C22.151 11.4721 22.3229 11.1777 22.2916 10.9298C22.2135 10.3874 21.9791 10.0207 21.3593 10.2273C21.3593 10.3977 21.3593 10.5217 21.3593 10.6457C21.401 12.9804 21.526 15.3203 21.4479 17.655C21.3854 19.4886 21.2864 19.5041 22.9635 19.7986C23.1666 19.8347 23.3906 19.8864 23.5833 19.8399C24.5885 19.5868 25.5781 19.2562 26.5885 19.0599C26.9218 18.9928 27.3021 19.2459 27.6666 19.3543C27.5 19.7004 27.4114 20.2324 27.1562 20.3512C26.3489 20.7386 25.4948 21.126 24.6354 21.2293C23.4218 21.374 22.1823 21.2655 20.8541 21.2655C20.6458 21.8698 20.3593 22.7015 20.0468 23.595C21.8906 24.3234 23.7031 24.1581 25.4427 23.3419C30.0989 21.1674 33.0104 17.1126 35.0052 12.1281C35.0364 12.0455 35.0052 11.937 35.0052 11.7717M19.3229 8.42459C13.7343 12.5258 7.86976 13.6002 1.42185 11.5083C1.61976 13.0682 1.72914 14.5093 1.98956 15.9143C2.71351 19.7727 4.15101 23.2335 6.83331 25.9453C10.0781 29.2252 14.3646 29.0754 17.0052 25.5269C17.6979 24.5971 18.2812 23.5279 18.7343 22.4329C20.0625 19.22 20.2031 15.8006 19.8958 12.345C19.7812 11.0796 19.5312 9.82955 19.3229 8.42459ZM22.1823 25.5837C21.7083 25.5837 21.1562 25.7593 20.7708 25.5527C19.4531 24.845 18.8125 25.6043 18.0156 26.6529C14.7135 30.9659 9.84372 31.1364 5.90622 27.1229C2.5156 23.6519 0.82289 19.2252 0.187473 14.251C0.0364312 13.0475 0.0155978 11.8182 -2.717e-05 10.5992C-0.0156522 9.56612 0.364556 9.34918 1.33331 9.59711C3.00518 10.0258 4.67185 10.5424 6.36976 10.7696C9.07289 11.1364 11.6979 10.5424 14.2187 9.44215C14.5625 9.29236 14.8698 8.78616 15.0052 8.36777C15.8646 5.70765 17.0156 3.23348 18.5625 0.986576C19.4843 -0.346069 19.8073 -0.330573 20.6302 1.03306C24.25 7.02996 29.3385 10.0052 35.8177 10.0827C36.9635 10.0981 37.2343 10.4752 36.8125 11.6529C34.8073 17.3192 31.6666 21.9112 26.5677 24.499C25.2239 25.1808 23.6979 25.4391 22.2604 25.8936C22.2343 25.7851 22.2135 25.6818 22.1875 25.5734" fill="#761116"/>
<path id="Vector_2" d="M11.0936 25.6405C9.5884 25.6198 7.83319 24.7624 6.51028 22.9029C6.19257 22.4587 5.9634 21.8802 6.48944 21.5444C6.73944 21.3843 7.24986 21.6787 7.61965 21.8337C7.79673 21.9112 7.91653 22.1488 8.05715 22.3192C9.27069 23.7965 10.7863 24.1994 12.5103 23.8688C14.2603 23.5279 15.4842 22.4535 16.1197 20.6043C16.3228 20.0052 16.5832 19.5661 17.2186 19.8502C17.8749 20.1395 17.7238 20.6973 17.5363 21.2603C16.6926 23.7965 14.2811 25.6095 11.0884 25.6405" fill="#761116"/>
<path id="Vector_3" d="M12.3491 16.3946C12.396 15.0413 13.3647 13.8378 14.2918 13.7087C15.1929 13.5847 16.672 14.6436 16.8439 15.6198C16.8908 15.8988 16.7345 16.3326 16.5366 16.5134C16.3908 16.6426 16.0054 16.5289 15.7606 16.4205C15.5887 16.343 15.4793 16.095 15.3439 15.9194C14.7189 15.1188 14.2918 15.2479 13.8804 16.2087C13.7293 16.5702 13.3179 16.9215 12.9741 16.999C12.7814 17.0455 12.4793 16.5289 12.3491 16.3895" fill="#761116"/>
<path id="Vector_4" d="M7.65111 14.6178C8.60424 14.7056 9.33861 15.3306 9.80736 16.3068C9.93236 16.5651 9.7657 16.9938 9.73445 17.3502C9.38549 17.3037 9.03132 17.2831 8.69278 17.1953C8.5782 17.1643 8.51049 16.9473 8.41674 16.8233C7.7709 15.9711 7.32299 16.0537 6.96361 17.0661C6.88549 17.2779 6.8334 17.5775 6.68757 17.6601C6.44799 17.7944 6.09382 17.9029 5.88028 17.7996C5.66674 17.6963 5.4584 17.3244 5.43757 17.0455C5.33861 15.8729 6.49486 14.5919 7.65111 14.6178Z" fill="#761116"/>
<path id="Vector_5" d="M27.995 11.8647C28.8595 12.0351 29.5418 12.376 29.7137 13.1715C29.896 14.0186 29.8179 14.9535 29.7554 15.8368C29.745 15.9814 29.1877 16.2345 28.9637 16.157C28.7293 16.0795 28.5575 15.6767 28.4325 15.3771C28.37 15.2273 28.5054 14.9845 28.4741 14.7986C28.4116 14.4421 28.3804 13.9153 28.1772 13.7913C27.9533 13.657 27.5314 13.8585 27.2137 13.9773C27.0262 14.0444 26.8752 14.3337 26.6981 14.344C26.3595 14.3698 26.0106 14.2769 25.6616 14.2304C25.7189 13.8481 25.6616 13.28 25.8595 13.125C26.521 12.624 27.2762 12.2727 27.995 11.8647Z" fill="#761116"/>
</g>
</g>
</g>
</g>
<defs>
<clipPath id="clip0_0_1">
<rect width="1440" height="4284" fill="white" transform="translate(-392 -2422)"/>
</clipPath>
<clipPath id="clip1_0_1">
<rect width="37" height="30" fill="white"/>
</clipPath>
</defs>
</svg>
