<svg width="22" height="42" viewBox="0 0 22 42" fill="none" xmlns="http://www.w3.org/2000/svg">
<g clip-path="url(#clip0_23_1018)">
<path d="M8.09836 14.5637C8.09836 13.0877 8.09836 11.6656 8.09836 10.2385C8.09836 9.29044 7.48533 8.62579 6.64644 8.63557C5.82599 8.64534 5.24062 9.3051 5.23601 10.2337C5.2314 11.5287 5.23601 12.8189 5.23601 14.114C5.23601 14.2558 5.24523 14.4024 5.25444 14.5637H8.10297H8.09836ZM9.28294 14.5637C10.2693 14.6223 11.2419 14.417 12.1407 15.0377C12.1407 13.3077 12.1637 11.6607 12.1315 10.0088C12.113 9.20736 11.4493 8.61602 10.6934 8.63068C9.95589 8.64045 9.31059 9.23179 9.29677 10.0088C9.26911 11.5092 9.28755 13.0095 9.28755 14.5637M20.2391 13.8013C20.2391 12.6088 20.2391 11.4212 20.2391 10.2288C20.2345 9.29533 19.6446 8.64045 18.8241 8.63068C17.9852 8.6209 17.3768 9.28555 17.3768 10.2385C17.3768 12.5746 17.3768 14.9106 17.3768 17.2467C17.3768 18.2095 17.9668 18.8692 18.8103 18.8692C19.6492 18.8692 20.2345 18.2046 20.2391 17.2418C20.2438 16.0933 20.2391 14.9497 20.2391 13.8061M13.3299 13.7231C13.3299 14.9155 13.3253 16.1031 13.3299 17.2956C13.3345 18.2241 13.9383 18.8741 14.7633 18.8741C15.5838 18.8741 16.1876 18.2143 16.1922 17.2858C16.1968 14.9351 16.1968 12.5844 16.1922 10.2337C16.1922 9.3051 15.5976 8.64534 14.7772 8.63557C13.9383 8.62579 13.3345 9.29533 13.3299 10.2434C13.3253 11.4066 13.3299 12.5648 13.3299 13.7231ZM20.2391 19.7147C18.9163 20.4038 17.787 20.2278 16.7822 19.1429C16.2153 19.7636 15.5561 20.135 14.7311 20.1252C13.9245 20.1154 13.2746 19.7489 12.7445 19.1331C12.1545 19.6512 11.2849 20.0014 10.1357 20.1839C10.3062 20.3011 10.4306 20.3793 10.5505 20.4673C12.0761 21.5523 12.9888 23.0673 13.3114 24.983C13.3852 25.4082 13.1916 25.7307 12.8459 25.7992C12.5232 25.8676 12.219 25.633 12.1591 25.242C11.8088 22.8718 10.403 21.5034 8.37491 20.7214C7.29174 20.306 6.16247 20.179 5.02398 20.135C4.86727 20.1301 4.71055 20.135 4.56306 20.1105C4.25884 20.0617 4.04221 19.8418 4.0883 19.5388C4.12057 19.3188 4.30494 19.0891 4.48009 18.9376C4.5861 18.8448 4.80274 18.8741 4.96867 18.8741C6.8769 18.8741 8.78975 18.8741 10.698 18.8692C11.3525 18.8692 11.8872 18.4294 12.09 17.7794C12.2697 17.1929 12.09 16.5038 11.5737 16.1666C11.3018 15.9858 10.9515 15.8539 10.6335 15.8539C7.99235 15.8294 5.35124 15.8294 2.71013 15.8441C1.76984 15.849 1.19829 16.4892 1.19829 17.4862C1.19829 19.2309 1.20751 20.9707 1.19369 22.7154C1.18447 23.6928 1.48868 24.5139 2.12015 25.2176C3.71034 27.0063 5.29132 28.8048 6.88612 30.5886C7.15346 30.8916 7.27791 31.1994 7.27791 31.6197C7.26408 34.7622 7.26869 37.9095 7.26869 41.0519C7.26869 41.1985 7.28252 41.3549 7.25025 41.4966C7.17651 41.8241 6.96909 42.0196 6.64644 42C6.34684 41.9853 6.15786 41.7899 6.10255 41.4722C6.0795 41.3256 6.08872 41.1741 6.08872 41.0275C6.08872 37.9877 6.09333 34.9479 6.0795 31.9081C6.0795 31.6882 5.9781 31.4145 5.83521 31.2532C4.35103 29.5476 2.85763 27.842 1.34118 26.1657C0.414721 25.1492 -0.0231591 23.9763 -0.000112758 22.5737C0.0275428 20.8778 -0.000112758 19.1771 0.00910576 17.4813C0.013715 15.8148 1.09228 14.6418 2.66404 14.593C3.11114 14.5783 3.55824 14.593 4.05143 14.593V12.9118C4.05143 12.0468 4.05143 11.1818 4.05143 10.3216C4.04221 9.06563 4.54001 8.11753 5.63701 7.61904C6.71097 7.13522 7.69735 7.37469 8.54546 8.22993C8.58694 8.26903 8.62842 8.30324 8.69295 8.36677C9.24146 7.76077 9.89136 7.39423 10.698 7.38935C11.5046 7.38935 12.1591 7.74122 12.7261 8.37166C13.2838 7.76077 13.9337 7.38935 14.7403 7.38935C15.5469 7.38935 16.206 7.73633 16.7684 8.37166C17.2754 7.83408 17.8469 7.45777 18.5706 7.40401C20.1101 7.28672 21.4007 8.48895 21.4053 10.1213C21.4191 15.0084 21.4422 19.8955 21.3822 24.7826C21.3684 25.7552 21.0688 26.7424 20.7784 27.6807C20.4281 28.8243 19.9442 29.919 19.5385 31.0431C19.451 31.2874 19.4003 31.5611 19.4003 31.8201C19.391 34.9039 19.3957 37.9877 19.3957 41.0714C19.3957 41.2229 19.4095 41.3745 19.3772 41.5162C19.3081 41.8241 19.1145 42.0147 18.8103 42.0147C18.4876 42.0147 18.2894 41.8143 18.2295 41.482C18.2065 41.3549 18.2203 41.2132 18.2203 41.0812C18.2203 37.9241 18.2157 34.7622 18.2249 31.6051C18.2249 31.3167 18.2894 31.0137 18.3862 30.7449C18.8149 29.5671 19.262 28.3942 19.7091 27.2213C20.0732 26.2683 20.253 25.286 20.2438 24.2597C20.2345 22.774 20.2438 21.2835 20.2438 19.7294" fill="#761116"/>
<path d="M12.1452 2.10636C12.1452 1.63231 12.136 1.15826 12.1452 0.684204C12.1544 0.278572 12.3895 0.00977997 12.7214 5.707e-06C13.0532 -0.00488142 13.316 0.259024 13.3206 0.659768C13.3298 1.65674 13.3344 2.64883 13.3206 3.64092C13.3206 4.05144 13.0671 4.30068 12.726 4.29579C12.3803 4.29091 12.159 4.04166 12.1498 3.62137C12.1406 3.11799 12.1498 2.60973 12.1498 2.10636" fill="#761116"/>
<path d="M9.45355 3.95368C9.43972 4.33977 9.29683 4.57924 8.97418 4.64277C8.6331 4.71119 8.36576 4.54014 8.30123 4.19804C8.10303 3.16686 7.93249 2.13078 7.78038 1.08983C7.73429 0.762388 7.90483 0.513144 8.22748 0.439837C8.56396 0.361643 8.84512 0.50337 8.91426 0.855243C9.11707 1.90109 9.27839 2.95182 9.44894 3.95857" fill="#761116"/>
<path d="M5.78012 5.15593C5.61419 5.34164 5.48052 5.58111 5.28232 5.68374C5.01959 5.81569 4.71999 5.70329 4.60937 5.40517C4.24063 4.39842 3.88571 3.3819 3.55846 2.3556C3.46166 2.05749 3.60916 1.7496 3.89493 1.68606C4.10235 1.64208 4.49414 1.7105 4.54945 1.84734C4.98272 2.90785 5.35146 3.99279 5.77551 5.15593" fill="#761116"/>
<path d="M21.9311 2.23831C21.9126 2.32627 21.8942 2.41424 21.8665 2.49244C21.5531 3.41122 21.2351 4.33488 20.9216 5.25366C20.811 5.57133 20.599 5.79125 20.2902 5.69839C20.0966 5.63975 19.926 5.42471 19.7924 5.239C19.7371 5.16081 19.7739 4.9751 19.8108 4.85781C20.1242 3.91948 20.4377 2.98604 20.7649 2.05259C20.8802 1.72516 21.1291 1.51012 21.4517 1.6323C21.6637 1.71538 21.8158 1.96463 21.9956 2.14056C21.9725 2.16989 21.9495 2.2041 21.9265 2.23342" fill="#761116"/>
<path d="M16.9575 0.410512C17.4645 0.415399 17.7411 0.733062 17.6811 1.12892C17.5244 2.14056 17.3631 3.1473 17.1741 4.14917C17.105 4.5157 16.8515 4.71119 16.4873 4.63788C16.1463 4.56946 15.9711 4.31533 16.0218 3.95857C16.1785 2.91761 16.3398 1.88154 16.5519 0.850353C16.5934 0.649981 16.8653 0.503367 16.9529 0.405624" fill="#761116"/>
<path d="M12.0807 32.6118C12.0807 33.0272 12.0853 33.4426 12.0807 33.8629C12.0715 34.249 11.8779 34.4885 11.5137 34.4983C11.145 34.508 10.9284 34.2637 10.9191 33.8922C10.8961 33.0321 10.8961 32.1671 10.9191 31.307C10.9284 30.9013 11.2003 30.6374 11.5322 30.6716C11.8963 30.7058 12.0807 30.9404 12.0853 31.3265C12.0899 31.7566 12.0853 32.1866 12.0853 32.6216" fill="#761116"/>
<path d="M14.5605 32.6167C14.5605 33.0028 14.5697 33.3889 14.5605 33.775C14.5467 34.2295 14.3208 34.4934 13.9751 34.4983C13.6202 34.4983 13.3943 34.2441 13.3897 33.7847C13.3805 32.9686 13.3805 32.1475 13.3897 31.3314C13.3943 30.9062 13.6248 30.657 13.9659 30.6521C14.3024 30.6521 14.542 30.8964 14.5605 31.3167C14.5789 31.7468 14.5605 32.1769 14.5605 32.6118V32.6167Z" fill="#761116"/>
</g>
<defs>
<clipPath id="clip0_23_1018">
<rect width="22" height="42" fill="white"/>
</clipPath>
</defs>
</svg>
