<svg width="133" height="98" viewBox="0 0 133 98" fill="none" xmlns="http://www.w3.org/2000/svg">
<g id="Layer_1" clip-path="url(#clip0_85_325)">
<g id="Group">
<path id="Vector" d="M6.79171 78.6224H0V82.6089H6.79171C8.11313 82.6089 9.20944 83.7077 9.20944 85.032C9.20944 86.3563 8.11313 87.455 6.79171 87.455H0V97.9977H3.98453V91.446H6.79171C7.77321 91.446 8.70518 91.2204 9.53811 90.8211C11.6925 89.7878 13.1872 87.5769 13.1872 85.0342C13.1872 81.5102 10.3103 78.6224 6.78946 78.6224H6.79171Z" fill="white"/>
<path id="Vector_2" d="M32.7723 90.8211C34.9266 89.7878 36.4214 87.5769 36.4214 85.0342C36.4214 81.5102 33.5444 78.6224 30.0236 78.6224H23.2319V82.6089H30.0236C31.3451 82.6089 32.4414 83.7077 32.4414 85.032C32.4414 86.3563 31.3451 87.455 30.0236 87.455H23.2319V91.446H28.5041L32.4121 97.9977H37.0517L32.77 90.8189L32.7723 90.8211Z" fill="white"/>
<path id="Vector_3" d="M47.094 78.6224V98H51.0763V78.6224H47.094Z" fill="white"/>
<path id="Vector_4" d="M76.7033 82.2796L70.9089 87.6017L65.1144 82.2796L61.1299 78.6247V84.0348L65.1144 87.6897L70.9089 93.0118L76.7033 87.6897V98H80.6878V78.6224L76.7033 82.2773V82.2796ZM61.1299 89.0568V98H65.1144V92.7117L61.1299 89.0568Z" fill="white"/>
<path id="Vector_5" d="M90.7234 78.6224V82.6135H104.543V78.6224H90.7234ZM90.7234 86.3157V90.3067H104.543V86.3157H90.7234ZM90.7234 94.0067V98H104.543V94.0067H90.7234Z" fill="white"/>
<path id="Vector_6" d="M126.217 88.2988L123.788 84.8222L119.439 78.5976H114.581L121.359 88.3011L114.581 98.0045H119.439L123.788 91.78L128.137 98.0045H132.998L126.217 88.3011V88.2988ZM128.14 78.5954L126.044 81.5915L128.475 85.0681L132.998 78.5931H128.137L128.14 78.5954Z" fill="white"/>
</g>
<g id="Group_2">
<path id="Vector_7" d="M93.3707 0L91.0385 3.7609L89.9895 5.45297C86.6983 10.757 80.9106 13.981 74.6772 13.981H73.313L79.6522 3.75864L81.9844 0H93.3707Z" fill="white"/>
<path id="Vector_8" d="M39.6292 61.1626L41.9613 57.4017L43.0104 55.7096C46.3016 50.4055 52.0892 47.1816 58.3227 47.1816H59.6869L53.3476 57.4039L51.0155 61.1648H39.6292V61.1626Z" fill="white"/>
<path id="Vector_9" d="M83.2272 60.9415H71.8409L58.4758 38.9694L52.8457 29.8932L58.5389 20.7154L64.232 29.8932L74.5535 46.9582L83.2272 60.9415Z" fill="white"/>
<path id="Vector_10" d="M77.6195 26.1594L71.9263 35.3371L66.2332 26.1594L60.4432 16.8237L58.066 12.9928L51.7268 2.77048H63.1131L69.4523 12.9928L71.8295 16.8237L71.9263 16.9793L77.6195 26.1594Z" fill="white"/>
</g>
</g>
<defs>
<clipPath id="clip0_85_325">
<rect width="133" height="98" fill="white"/>
</clipPath>
</defs>
</svg>
