<svg width="40" height="34" viewBox="0 0 40 34" fill="none" xmlns="http://www.w3.org/2000/svg">
<rect width="40" height="34" fill="#F5F5F5"/>
<g id="Home" clip-path="url(#clip0_0_1)">
<rect width="1440" height="4284" transform="translate(-1015 -2420)" fill="white"/>
<g id="Group 29">
<rect id="Rectangle 153" x="-711" y="-34" width="832" height="140" rx="62" fill="#E8E8E8" fill-opacity="0.25"/>
<g id="Eltamayooz Icon">
<rect id="Rectangle 4" x="-10" y="-16" width="61" height="65" rx="9" stroke="#761116" stroke-width="2"/>
<g id="Layer_1" clip-path="url(#clip1_0_1)">
<path id="Vector" d="M26.829 10.7202C26.6892 10.9767 26.5828 11.1568 26.4933 11.3424C25.7436 12.9308 24.9938 14.5192 24.2497 16.113C24.0818 16.4733 23.9195 16.8335 23.4104 16.7462C22.8844 16.6588 22.9012 16.2495 22.8844 15.8674C22.7893 13.7004 22.6942 11.5335 22.5935 9.36651C22.5823 9.14817 22.5543 8.9353 22.5375 8.71696C22.1291 9.67217 21.9109 10.6383 21.6143 11.5771C21.5136 11.8992 21.2115 12.1612 21.0044 12.4505C20.7079 12.2431 20.389 12.052 20.1148 11.8173C19.8351 11.5771 19.6336 11.1186 19.3259 11.0531C18.7496 10.9276 18.1285 11.0149 17.3508 11.0149C17.776 11.7573 18.0782 12.3959 18.4754 12.9799C20.7303 16.2768 23.9419 18.5693 27.3606 20.6325C27.5452 20.7471 27.9425 20.7089 28.1495 20.5943C28.8321 20.2177 29.4756 19.781 30.1246 19.3498C32.6984 17.6195 35.0931 15.6982 36.8444 13.1491C37.292 12.4941 37.6557 11.7846 38.1257 10.9822C36.7661 10.9822 35.6079 10.9985 34.4553 10.9767C34.0133 10.9658 33.8006 11.1077 33.6608 11.5171C33.1236 13.0563 32.5697 14.5956 31.9654 16.113C31.8591 16.3805 31.501 16.7134 31.238 16.7298C30.7457 16.7626 30.6617 16.3259 30.6561 15.9165C30.6561 15.4908 30.6226 15.0705 30.6058 14.6447C30.5163 12.6524 30.4267 10.6547 30.3372 8.66238C30.1638 8.80975 30.091 8.97896 30.0463 9.14817C29.8169 10.016 29.621 10.8948 29.3525 11.7518C29.2741 12.0083 29.0391 12.3522 28.8153 12.4013C28.5915 12.4505 28.2334 12.2376 28.032 12.0465C27.6124 11.659 27.2599 11.206 26.8234 10.7202M24.0314 13.1655C24.093 13.1764 24.1545 13.1873 24.2161 13.1983C24.798 11.9538 25.3687 10.7093 25.9674 9.47567C26.2975 8.78792 26.7339 8.72788 27.2599 9.27917C27.6124 9.65034 27.9481 10.0379 28.3509 10.4855C28.4684 10.0979 28.5635 9.83592 28.6363 9.56301C29.1119 7.73446 29.5875 5.90592 30.0575 4.07192C30.1638 3.65708 30.3316 3.20404 30.8464 3.35687C31.0982 3.43329 31.3388 3.89179 31.3779 4.19746C31.4842 5.15812 31.4954 6.12425 31.5402 7.09038C31.6241 8.89163 31.7024 10.6983 31.7808 12.4996C32.1892 11.8664 32.469 11.2223 32.6648 10.551C32.8439 9.95601 33.1852 9.71584 33.8398 9.73767C35.1715 9.77588 36.5031 9.73767 37.8348 9.76496C38.316 9.77588 38.5454 9.65034 38.6125 9.17C38.8643 7.38513 38.6181 5.68758 37.6725 4.11558C36.2569 1.75758 33.4929 0.67137 31.1317 1.71391C30.1134 2.1615 29.2574 2.96933 28.3789 3.67891C27.8194 4.13196 27.6068 4.16471 27.0864 3.67891C26.5381 3.17129 26.0009 2.63637 25.3743 2.23245C23.7181 1.15716 21.9612 0.944286 20.1484 1.92133C17.6026 3.29137 16.1198 6.67009 16.9088 9.37196C16.9591 9.54663 17.2501 9.75951 17.4459 9.77588C18.0558 9.82501 18.6824 9.75405 19.2923 9.79771C19.7511 9.83046 20.2043 9.96692 20.7079 10.0652C21.2115 8.1493 21.743 6.14063 22.2634 4.1265C22.3697 3.72258 22.4592 3.28591 23.0131 3.32958C23.623 3.37871 23.6118 3.85904 23.6286 4.29025C23.6901 5.895 23.7517 7.49429 23.8244 9.09359C23.886 10.4527 23.9587 11.8064 24.0258 13.1655M27.6571 2.35254C28.6587 1.73029 29.5483 1.02616 30.561 0.573119C33.0117 -0.524007 35.2498 0.0436604 37.1801 1.72483C40.2183 4.36667 40.8338 8.53138 38.8083 12.3795C37.5158 14.8303 35.6135 16.8062 33.3978 18.4874C31.7584 19.7319 29.9959 20.829 28.2614 21.9425C28.0152 22.1008 27.5061 22.139 27.2655 22.0026C23.8972 20.0485 20.7247 17.8597 18.274 14.8521C16.5171 12.6906 15.3309 10.3053 15.4764 7.49975C15.6387 4.3885 17.1046 1.99229 20.0645 0.573119C21.9948 -0.354799 23.9028 -0.103715 25.6932 0.987953C26.3982 1.4137 27.0417 1.92679 27.6571 2.358" fill="#761116"/>
<path id="Vector_2" d="M25.1504 30.1191C25.1672 30.2228 25.1896 30.332 25.2064 30.4357C25.5981 30.2665 26.0009 30.13 26.3702 29.9281C28.3789 28.8309 30.3596 27.6738 32.3962 26.6203C33.9125 25.8343 35.5015 25.1848 37.0458 24.4534C37.3703 24.3005 37.7172 24.1095 37.9298 23.842C38.0865 23.6401 38.1313 23.258 38.0529 23.0124C38.0026 22.8541 37.6221 22.6958 37.3983 22.7067C36.8388 22.7285 36.2569 22.7831 35.7253 22.9414C33.6607 23.5746 31.6129 24.2623 29.5539 24.9119C29.0727 25.0647 28.7873 25.2721 28.6586 25.7961C28.5747 26.14 28.2278 26.5002 27.8977 26.6967C26.9633 27.2699 25.9226 27.4991 24.7923 27.379C23.7181 27.2644 22.6326 27.1662 21.5471 27.1334C20.6127 27.1061 19.6783 27.1443 18.8503 27.7011C18.688 27.8102 18.1676 27.7065 18.0557 27.5482C17.9382 27.379 18.0054 26.8823 18.1732 26.7786C18.6097 26.4948 19.13 26.1891 19.6336 26.1673C21.3737 26.0963 23.1194 26.1618 24.8651 26.14C25.4694 26.1345 26.096 26.0963 26.6723 25.938C26.9857 25.8507 27.2151 25.485 27.4836 25.2394C27.2039 24.9719 26.9409 24.6826 26.6332 24.4424C26.5157 24.3496 26.3086 24.3333 26.1408 24.3114C24.9658 24.1641 23.7908 24.0549 22.6214 23.8802C20.6519 23.5909 18.632 23.449 16.7353 22.9086C15.0735 22.4392 13.753 22.6739 12.455 23.6291C11.9458 24.0003 11.4478 24.4097 10.8827 24.6717C7.88928 26.0581 4.88466 27.4172 1.86326 28.7327C1.35969 28.951 1.27017 29.153 1.37648 29.6169C1.66743 30.8724 2.43397 31.8057 3.6761 32.1769C4.83431 32.5208 6.07644 32.6027 7.29059 32.7664C7.48083 32.7937 7.7438 32.7009 7.89487 32.5754C10.0938 30.7414 12.7459 30.0482 15.5547 29.9827C18.7551 29.9062 21.9556 30.0536 25.156 30.1027M25.3351 31.4018C22.5487 31.2981 19.7679 31.1344 16.9815 31.1071C14.6986 31.0852 12.4494 31.4018 10.3791 32.4171C9.88117 32.6627 9.36081 32.9465 8.98594 33.3341C8.45439 33.8745 7.85011 33.9945 7.12833 33.9836C5.47775 33.9618 3.87193 33.7871 2.42837 32.952C0.783389 32.0132 0.0672051 30.5612 6.28416e-05 28.7654C-0.0223179 28.2032 0.318989 28.0013 0.80577 27.8321C4.23562 26.6149 7.58714 25.2503 10.6925 23.3835C11.5877 22.8486 12.4326 22.2264 13.367 21.7679C14.3126 21.3039 15.3868 21.2056 16.394 21.5823C18.6656 22.4283 21.0659 22.5102 23.4383 22.7722C24.4902 22.8868 25.5421 23.0287 26.5828 23.1979C26.9633 23.258 27.4277 23.3508 27.6739 23.5909C28.2278 24.1368 28.7314 23.9075 29.33 23.7383C31.7192 23.0779 34.1139 22.4556 36.5199 21.8497C36.9115 21.7515 37.3535 21.7842 37.7732 21.8115C38.4054 21.8497 39.0321 21.9807 39.2895 22.6303C39.5525 23.3071 39.5357 24.0221 38.9873 24.5516C38.5453 24.9774 38.0082 25.3431 37.4487 25.616C35.6302 26.5111 33.7502 27.2972 31.9486 28.2251C30.2588 29.0929 28.6474 30.1027 26.9801 31.0197C26.4821 31.2927 25.9226 31.4619 25.3966 31.6802C25.3798 31.5929 25.3575 31.5055 25.3407 31.4182" fill="#761116"/>
</g>
</g>
</g>
</g>
<defs>
<clipPath id="clip0_0_1">
<rect width="1440" height="4284" fill="white" transform="translate(-1015 -2420)"/>
</clipPath>
<clipPath id="clip1_0_1">
<rect width="40" height="34" fill="white"/>
</clipPath>
</defs>
</svg>
